# xmcd
#
# Track frame offsets: 
#        150
#        15862
#        31668
#        45666
#        60790
#        85497
#        103615
#        120207
#        140594
#        156483
#
# Disc length: 2319 seconds
#
# Revision: 0
# Processed by: cddbd v1.5.2PL0 Copyright (c) Steve Scherf et al.
# Submitted via: ExactAudioCopy v1.3
#
DISCID=6d090d0a
DTITLE=The Mavericks - Brand New Day
DYEAR=2017
DGENRE=Country/ rock
TTITLE0=Rolling Along
TTITLE1=Brand New Day
TTITLE2=Easy as It Seems
TTITLE3=I Think of You
TTITLE4=Goodnight Waltz
TTITLE5=Damned (If You Do)
TTITLE6=I Will Be Yours
TTITLE7=Ride with Me
TTITLE8=I Wish You Well
TTITLE9=For the Ages
EXTD=
EXTT0=
EXTT1=
EXTT2=
EXTT3=
EXTT4=
EXTT5=
EXTT6=
EXTT7=
EXTT8=
EXTT9=
PLAYORDER=
